<mxfile host="app.diagrams.net" modified="2023-11-14T05:45:19.748Z" agent="Mozilla/5.0 (Windows NT 10.0; Win64; x64) AppleWebKit/537.36 (KHTML, like Gecko) Chrome/119.0.0.0 Safari/537.36 Edg/119.0.0.0" etag="lytgGCcg7CbdpMzP_6UZ" version="22.1.0" type="github">
  <diagram name="overview" id="BoJd0XMzn1bthM0i_K7P">
    <mxGraphModel dx="1248" dy="708" grid="1" gridSize="10" guides="1" tooltips="1" connect="1" arrows="1" fold="1" page="1" pageScale="1" pageWidth="850" pageHeight="1100" math="0" shadow="0">
      <root>
        <mxCell id="0" />
        <mxCell id="1" parent="0" />
        <mxCell id="3jW_5iH8ALOGEp1pLc8s-1" value="sell exams&lt;br style=&quot;font-size: 27px;&quot;&gt;create cv&lt;br&gt;" style="text;html=1;strokeColor=none;fillColor=none;align=center;verticalAlign=middle;whiteSpace=wrap;rounded=0;fontSize=27;" vertex="1" parent="1">
          <mxGeometry x="80" y="80" width="200" height="120" as="geometry" />
        </mxCell>
      </root>
    </mxGraphModel>
  </diagram>
</mxfile>
